<?xml version="1.0"?>
<svg xmlns="http://www.w3.org/2000/svg" xmlns:xlink="http://www.w3.org/1999/xlink" xmlns:svgjs="http://svgjs.com/svgjs" version="1.1" width="512" height="512" x="0" y="0" viewBox="0 0 24 24" style="enable-background:new 0 0 512 512" xml:space="preserve"><g><path xmlns="http://www.w3.org/2000/svg" d="m24 4.5a1 1 0 0 1 -2 0 2.59 2.59 0 0 0 -2.785-2.5 1 1 0 0 1 0-2 4.6 4.6 0 0 1 4.785 4.5z" fill="#f27a1a" data-original="#000000"/><path xmlns="http://www.w3.org/2000/svg" d="m2 4.5a2.59 2.59 0 0 1 2.785-2.5 1 1 0 0 0 0-2 4.6 4.6 0 0 0 -4.785 4.5 1 1 0 0 0 2 0z" fill="#f27a1a" data-original="#000000"/><path xmlns="http://www.w3.org/2000/svg" d="m20.319 20.176a10.98 10.98 0 0 0 -7.319-18.125v-1.051a1 1 0 0 0 -2 0v1.051a10.98 10.98 0 0 0 -7.319 18.125 3.024 3.024 0 0 0 -1.681 2.824 1 1 0 0 0 2 0 1.2 1.2 0 0 1 1.11-1.229.932.932 0 0 0 .2-.062 10.924 10.924 0 0 0 13.39 0 1.033 1.033 0 0 0 .182.064 1.2 1.2 0 0 1 1.118 1.227 1 1 0 0 0 2 0 3.024 3.024 0 0 0 -1.681-2.824zm-4.612-4.469a1 1 0 0 1 -1.414 0l-3-3a1 1 0 0 1 -.293-.707v-5a1 1 0 0 1 2 0v4.586l2.707 2.707a1 1 0 0 1 0 1.414z" fill="#f27a1a" data-original="#000000"/></g></svg>
